<?xml version="1.0" encoding="UTF-8"?>
<svg id="Camada_2" data-name="Camada 2" xmlns="http://www.w3.org/2000/svg" viewBox="0 0 193.58 202.36">
  <g id="Camada_1-2" data-name="Camada 1">
    <g>
      <path d="M98.89,202.36c-7.47,0-10.82-9.9-14.28-15.26-1.54-2.38-5.78-1.97-9.61-5.49-4.38-4.02-2.48-7.78-6.5-10.32-4.57-2.88-8.76-2.75-11.71-3.58-1.3-.37-4.9-1.34-1.2-7.72,7.5-12.93,34.47-17.69,56.69-18.08,7.76-.14,17.95.99,24.31-5.06,2.48-2.36,3-6.45,3.01-9.87,0-1.81-.32-3.1-.97-3.76-1.22-1.26-5.13-.75-5.38.22-1.5,5.32-.15,10.42-7.59,10.6-5.01.13-5.88-1.12-4.65-5.76,3.64-13.81,9.81-29.25,14.49-38.94.87-1.81,2.07-3.42,4.14-3.91,1.78-.42,8.2,1.05,9.4,2.42,1.83,2.08,1.9,6.14,1.8,8.84-.4,11.04-3.2,22.36-2.51,33.35.29,4.66,1.58,6.22,1.75,9.31.21,3.66-2.55,5.02-5.09,5.66-3.34.83-8.35,4.62-10.21,8.36-1.34,2.68-1.04,5.59-3.19,7.91-3.42,3.7-6.67,3.32-9.22,8.02-2.31,4.26-1.35,7.38-4.52,12.2-3.57,5.43-6.38,5.21-8.1,7.39-4.09,5.19-4.77,13.46-10.86,13.46ZM141.79,98.1c-1.55,0-6.27,15.45-6.27,15.45.31.81,3.37,1.25,4.21,1.17.35-.03.69,0,.85-.4,0,0,2.4-16.22,1.21-16.22Z"/>
      <path d="M39.28,96.06c7.96-3.87,16.28-.87,19.73,7.35,3.4,8.09,1.45,18.54-4.17,25.12-1.58,1.85-4.61,3.51-3.26,6.38,2.68,5.68,10.03,9.03,6.42,15.76-3.16,5.92-10.17,6.77-12.49.64-1.31-3.47-2.08-7.81-3.24-11.44-1.71-5.35-3.46-10.85-5.34-16.14-.42-1.2-1.07-3.34-1.69-4.32-1.44-2.3-3.28.31-5.84-1.21-3.88-2.31-2.44-7.92-.9-11.23,2.22-4.75,6.02-8.61,10.76-10.91ZM41.6,105.18c-.47.4-.87,1.16-.68,1.95,1.19,4.92,3.34,10.92,5.27,15.69,1.02,2.53,3.45-1.95,3.93-3.39,1.29-3.94,1.63-8.79-2.35-13.48-1.53-1.81-4.33-2.32-6.17-.76Z"/>
      <path d="M106.35,83.14c2.78-1.04,16.44-.4,19.28.78,1.34.56,2.51,1.38,2.87,2.88,1.21,5.05-4.41,13.64-7.02,18.04-4.08,6.91-7.62,12.47-10.26,18.31,1.15,1.12,5.41-.13,7.64-.37,1.03-.11.71,3.32.51,4.46-.33,1.95-.82,6.4-3.04,6.7-3.37.47-7.06.76-10.42.67-2.2-.06-4.5-.3-5.08-2.8-1.3-5.6,5.52-17.61,8.75-24.23,1.83-3.76,5.43-9,7.12-13.2.35-.85-2.87-1.11-5.33-.35-4.35,1.36-6.63,1.38-7.21-2.25-.28-1.78-.32-3.83-.17-5.61.13-1.53.85-2.48,2.35-3.04Z"/>
      <path d="M77.61,86.9c2.63-1.37,16.71-3.52,19.79-3.39,1.96.08,3.13,1.57,3.67,3.02,1.82,4.89-3.94,15.29-5.69,20.1-2.36,6.5-4.56,13.05-6.86,19.57,3.62.11,7.05-1.84,9.34-2.17,1.02-.15,1.1,3.22,1.05,4.38-.09,1.98-.39,6.49-2.56,7.06-3.29.87-8.36,2.45-11.72,2.77-2.19.2-4.51.24-5.39-2.18-1.98-5.42,3.35-18.2,5.75-25.18,1.36-3.97,3.96-10.41,5.13-14.79.25-.88-3.16-.8-5.51.26-4.15,1.87-7.11,2.95-8.12-.59-.49-1.74-.82-3.78-.88-5.57-.05-1.54.58-2.57,1.99-3.3Z"/>
      <path d="M63.59,89.24c1.82-.78,5.82-2.43,7.18-.24,1.39,2.24,1.8,11.73,2.3,16.92.59,6.2,1.26,13.2,2.3,19.34.51,3,2.63,10.85,2.23,13.28-.6,3.6-9.1,5.83-10.2,1.65-1.39-8.25-1.39-17.07-2.92-25.3-1.18-6.37-3.96-15.06-4.28-21.24-.14-2.65,1.19-3.46,3.4-4.41Z"/>
      <path d="M163.91,90.23c5.51-2.32,8.77,3.05,7.8,8.1-1.41,7.32-6.68,17.99-10.3,23.39-1.97,2.56-5.87,1.59-5.5-1.99.32-3.11,1.52-6.95,2.07-10.14.74-4.22,1.1-8.86,2.11-12.97.56-2.28,1.43-5.4,3.82-6.4Z"/>
      <path d="M156.41,124.95c5.32.92,5.48,9.14.6,10.77-7.1,2.37-8.05-12.05-.6-10.77Z"/>
      <path d="M185.83,24.62c-3.99-2.99-16.67-11.68-21.84-13.48C116.29-5.39,65.29-4.9,20.24,21.92,11.5,27.12-3.29,36.12.66,47.53c1.46,4.22,6.32,9.89,9.03,13.74,2.39,3.37,5.44,9.54,7.07,14.32,1.39,4.07,5,17.29,8.59,19.8,3.35,2.35,6.08-3.68,5.74-6.78-.57-5.25-4.86-8.45-6.36-13.09-1.52-3.53-2.59-12.41-6.02-18.3-5.07-8.73,3.41-13.71,6.22-14.33,5.89-1.31,11.8-.65,16.22-2.83,5.37-2.65,9.55-10.64,14.87-11.85,2.82-.65,6.22-.25,9.07-.81,4.42-.86,8.91-3.38,13.52-4.27,8.77-1.69,16.21,1.51,24.76.84,4.49-.35,8.93-1.47,13.44-1.45,8.98.04,17.61,6.73,26.28,7.81,8.45,1.06,26.1,7.77,30.67,16.38,5.55,10.46.7,10.23-2.31,21.16-.64,2.33-2.59,8.83-1.83,12.17.86,3.78,5.16,3.99,7.28.39,3.4-5.78,3.03-10.62,5.2-15.3,1.7-3.68,4.24-8.48,5.87-11.5,4.42-8.17,10.97-19.15-2.15-28.98Z"/>
      <path d="M79.07,33.84c1.82,1.6,1.7,15.09,3.09,24.84.39,2.71,1.82,14.19,2.14,16.82.44,3.61-3.37,5.07-5.96,5.54-5.2.94-3.16-6.36-4.93-7.97-.76-.69-4.12.44-5.08.84-1.37.57-1.64,6.13-1.93,7.61-.61,3.11-3.72,4.21-6.29,4.52-3.75.45-3.48-3.25-3.1-6.02.77-5.45,2.53-11.63,3.61-17.13,1.19-6.06,2.42-12.09,3.82-18.1.63-2.68,1.41-7.45,3.44-9.13,1.54-1.28,9.61-3.2,11.2-1.82ZM71.86,48.06c-.45.2-1.02,4.05-1.36,5.91-.39,2.16-1.7,8.02-2,10.74.02,1.02,4.92.43,5.26-.87.33-1.3-.61-11.41-1.17-14.95-.06-.36-.19-1.07-.73-.83Z"/>
      <path d="M160.09,71.54c-.47.18-.29,2.23.22,3.2.97,1.83,2.15,3.21,4.93,4.55,3.71,1.78-2.98,7.62-4.93,7.31-3.39-.53-4.68-3.97-5.25-6.04-1.41-5.12-.14-8.55-1.69-8.46-.55.03-.52.72-.83,1.84-.51,1.8-.98,7.87-2.08,8.56-1.4.88-8.18.16-7.2-3.14,1.39-6.16,3.08-12.25,4.36-18.44.96-4.61,1.58-11.87,2.83-15.49.88-2.57,4.52-1.33,6.48-.8,7.72,2.1,14.39,7.62,11.8,18.33-1.26,5.22-4.46,8.13-8.63,8.59ZM157.81,52.86c-1.08-.19-.93,2.15-2.92,10.89,7.54,2.7,7.84-10.04,2.92-10.89Z"/>
      <path d="M126.97,44.76c-1.1,1.45-6.08-.63-6.55.1-.24,1.06-.29,3.42-.35,4.54-.28,4.71-.61,8.64-1.03,13.34-.35,3.89-.47,7.65-.91,11.41-.11.98-.22,2.01-.98,2.69-1.71,1.53-7.37,1.89-8.4-.9-.79-2.16.29-7.06.68-9.52.73-4.69,1.29-8.84,1.7-13.53.14-1.57.61-6.99.33-8.23-.47-2.09-6.03.4-7.82-2.03-.7-.95-.94-3.53-1.09-4.84-.13-1.18-.43-4.84.03-5.75,1.11-2.2,7.85-1.15,9.67-.96,4.3.47,6.65,1.17,10.81,2.32,3.16.87,4.49,1.63,5.12,3.48.34,1-.08,6.42-1.18,7.88Z"/>
      <path d="M141.02,62.89c-1.12,1.86-5.01-1.7-5.81-.11-.63,1.25-1.4,5.19-.4,6.15.88.84,5.47.36,7.15,2.19,1,1.1-.72,7.32-2,8.12-1.63,1.02-5.65-.28-7.54-.7s-6.78-.44-7.57-2.57c-.39-1.05-.22-2.11-.1-3.19.56-4.77,2.21-11.79,3.05-16.83.97-5.82,1.54-11.25,2.6-16.89.33-1.79.67-2.71,2.6-2.76,1.69-.05,11.97,3.34,13.33,4.63,1.74,1.66,1.8,3.17,1.39,5.48-1.38,7.66-6.41,1.21-9.69,1.55-.89.09-2.37,4.72-1.13,6.11.82.92,4.9.63,5.58,2.48.19.51-1.2,5.92-1.46,6.34Z"/>
      <path d="M88.11,32.04c1.74-.61,5.77-1.64,6.75.33,1.01,2.02-.06,12.36-.21,15.38-.24,4.55-.31,9.28.6,16.32.34,2.63,2.04,9.33,1.4,11.44-.95,3.12-9.58,4.67-10.11.97-.32-7.29-.87-14.57-1.31-21.84-.34-5.63-1.8-12.21-1.39-17.63.18-2.33,2.16-4.23,4.26-4.97Z"/>
      <path d="M25.14,52.43c1.81-2.8,9.32-5.24,12.03-3.88,2.16,1.08,3.57,4.95,4.77,11.6,1.08,6,2.26,11.33,4.38,16.82.28.13.76-4.14.92-6,.9-10.6,1.61-15.42,2.91-23.52.67-4.18,2.99-8.29,6.92-9.84,5-1.96,4.93,1.05,4.24,4.48-1.66,8.21-4.31,19.51-5.84,27.96-.66,3.64-1.05,7.47-1.72,11.07-.92,4.91-1.41,7.91-6.23,9.74-4.93,1.87-5.84.49-7.61-4.43-2.15-5.96-3.79-12.6-5.5-18.8-.73-2.65-1.49-5.46-3.13-6.31-1.53-.8-2.67.86-4.76-.34-.93-.54-4.77-3.35-1.39-8.56Z"/>
    </g>
  </g>
</svg>